<?xml version="1.0" standalone="no"?>
<!DOCTYPE svg PUBLIC "-//W3C//DTD SVG 1.0//EN" "http://www.w3.org/TR/2001/REC-SVG-20010904/DTD/svg10.dtd">
<svg xmlns="http://www.w3.org/2000/svg" xmlns:xlink="http://www.w3.org/1999/xlink" id="body_1" width="85" height="78">

<g transform="matrix(0.06640625 0 0 0.06640625 -0 0.43750143)">
	<g transform="matrix(0.1 0 -0 -0.1 0 1168)">
        <path d="M12544 11670C 12315 11646 12087 11573 11818 11439C 11654 11358 11517 11276 11150 11040C 10999 10943 10769 10800 10640 10723C 9784 10214 9592 10097 9419 9982C 9312 9910 9165 9803 9091 9744C 9018 9684 8903 9591 8836 9537C 8703 9429 8509 9298 8168 9087C 7818 8871 7774 8834 7340 8405C 7128 8196 6915 7993 6865 7953C 6666 7796 6508 7712 6357 7682C 6280 7667 6274 7667 6109 7695C 5947 7721 5837 7725 5790 7706C 5780 7702 5769 7709 5758 7727C 5713 7803 5517 8078 5435 8181C 5162 8519 4881 8698 4532 8756C 4414 8776 4128 8779 3990 8761C 3856 8744 3670 8707 3495 8661C 2994 8531 2824 8490 2730 8474L2730 8474L2625 8457L2365 8508C 1548 8669 1213 8720 815 8739C 594 8750 324 8741 146 8715C 86 8707 32 8700 27 8700C 21 8700 19 8698 21 8696C 23 8693 66 8686 115 8680C 954 8575 1510 8457 2195 8239C 2685 8083 2813 8032 2935 7946C 3117 7815 3281 7562 3429 7185C 3463 7097 3510 6978 3532 6920C 3649 6622 3838 6307 4091 5990C 4290 5741 4338 5664 4523 5295C 4726 4893 4763 4834 5041 4473C 5129 4359 5232 4219 5270 4162C 5342 4054 5440 3872 5440 3847C 5440 3839 5396 3806 5343 3774C 5202 3691 4984 3543 4861 3447C 4739 3353 4460 3079 4376 2973C 4177 2719 4041 2444 3951 2111L3951 2111L3931 2037L3984 2043C 4013 2046 4079 2066 4131 2088C 4232 2131 4284 2145 4300 2135C 4306 2132 4290 2099 4261 2057C 4182 1939 4082 1757 3995 1570C 3902 1369 3886 1331 3892 1325C 3894 1322 3926 1316 3962 1311C 4032 1301 4134 1308 4329 1334C 4392 1343 4456 1350 4471 1350C 4498 1350 4499 1349 4488 1319C 4482 1302 4433 1198 4379 1089C 4276 880 4231 766 4211 665C 4204 632 4196 597 4194 588C 4189 572 4197 570 4258 570C 4396 570 4536 633 4775 800C 4921 902 5031 972 5037 967C 5038 965 5026 926 5009 879C 4906 599 4874 427 4883 211C 4890 44 4894 30 4930 30C 4969 30 5077 67 5139 102C 5219 148 5327 238 5400 321C 5514 450 5644 581 5688 612L5688 612L5730 641L5730 427C 5730 219 5745 67 5770 20C 5787 -12 5821 9 5931 120C 6075 264 6099 269 6086 150C 6078 84 6090 50 6119 50C 6132 50 6145 70 6165 123C 6289 442 6485 765 6900 1335C 7013 1489 7156 1692 7219 1785C 7282 1879 7335 1957 7337 1959C 7338 1961 7349 1955 7360 1945C 7378 1929 7381 1929 7404 1943C 7453 1975 7531 2100 7695 2406C 7754 2515 7806 2610 7812 2615C 7818 2621 7819 2606 7814 2574C 7810 2539 7811 2520 7820 2515C 7836 2505 7837 2507 7876 2616C 8085 3201 8146 3954 8035 4595C 8015 4709 7967 4911 7934 5014L7934 5014L7909 5093L7942 5149C 7992 5233 8130 5367 8245 5442C 8359 5517 8452 5564 8729 5691C 8957 5796 9066 5853 9170 5923C 9260 5983 9386 6103 9436 6176C 9466 6220 9496 6243 9604 6311C 9875 6480 10080 6640 10268 6829C 10362 6924 10380 6938 10415 6943C 10476 6950 10567 6993 10612 7036C 10634 7058 10743 7179 10855 7305C 11102 7586 11225 7706 11403 7838C 11478 7894 11600 7984 11673 8039C 11909 8215 12029 8334 12136 8497C 12199 8591 12244 8684 12230 8688C 12197 8700 11051 8518 10936 8483C 10921 8479 10925 8489 10955 8531C 11148 8796 11214 8932 11290 9223C 11317 9326 11322 9334 11362 9368C 11508 9489 11578 9610 11580 9745C 11581 9782 11586 9789 11660 9852C 11703 9889 11786 9972 11844 10036C 11965 10168 12381 10673 12411 10725C 12422 10744 12438 10801 12446 10852C 12465 10972 12496 11036 12609 11190C 12775 11416 12819 11523 12794 11649L12794 11649L12788 11680L12701 11679C 12654 11678 12583 11674 12544 11670z" stroke="none" fill="#000000" fill-rule="nonzero" />
	</g>
</g>
</svg>